<?xml version="1.0" encoding="utf-8"?>
<!-- Generator: Adobe Illustrator 24.1.2, SVG Export Plug-In . SVG Version: 6.00 Build 0)  -->
<svg version="1.1" id="Layer_1" xmlns="http://www.w3.org/2000/svg" xmlns:xlink="http://www.w3.org/1999/xlink" x="0px" y="0px"
	 viewBox="0 0 400 300" style="enable-background:new 0 0 400 300;" xml:space="preserve">
<style type="text/css">
	.st0{fill:#FFFFFF;}
	.st1{fill:#231F20;}
	.st2{fill:#1CC06D;}
	.st3{fill:#D1D3D4;}
	.st4{fill:none;}
</style>
<path class="st0" d="M140.7,149.4l6.5,30l24.6-27.9l10,8.8c0,0-34.8,51.7-48.7,48.3s-10.1-23-13.1-44.1S140.7,149.4,140.7,149.4z"/>
<path class="st1" d="M134.5,209.4c-0.5,0-1-0.1-1.5-0.2c-10.6-2.6-11.2-14-12-28.5c-0.3-5.2-0.6-10.5-1.4-16.1
	c-0.8-5.9,0.3-10.4,3.4-13.1c6.1-5.5,17.3-2.7,17.8-2.6c0.2,0.1,0.3,0.2,0.4,0.4l6.3,29l23.9-27.2c0.1-0.1,0.2-0.2,0.4-0.2
	c0.1,0,0.3,0,0.4,0.1l10,8.8c0.2,0.2,0.2,0.4,0.1,0.6C180.8,162.7,149.2,209.4,134.5,209.4z M133.9,149.2c-3.4,0-7.4,0.6-10.2,3.1
	s-3.9,6.7-3.1,12.3s1.1,10.9,1.4,16.1c0.8,14.1,1.4,25.1,11.3,27.6c5.5,1.3,15.5-6.5,29-22.7c9.3-11.2,17.4-22.9,18.9-25l-9.3-8.2
	l-24.2,27.5c-0.1,0.1-0.3,0.2-0.5,0.2s-0.3-0.2-0.4-0.4l-6.5-29.7C138.2,149.5,136,149.2,133.9,149.2z"/>
<path class="st1" d="M60.6,238c-2,13.5-1.7,17.2-1.7,17.2l82.9-1.7l-10.9-47.4L67.3,213C64.2,221.1,62,229.4,60.6,238z"/>
<path class="st1" d="M58.9,255.7c-0.3,0-0.5-0.2-0.5-0.4s-0.3-3.9,1.7-17.4l0,0c1.4-8.6,3.6-17,6.8-25.1c0.1-0.2,0.2-0.3,0.4-0.3
	l63.6-6.8c0.3,0,0.5,0.1,0.5,0.4l10.9,47.4c0,0.1,0,0.3-0.1,0.4c-0.1,0.1-0.2,0.2-0.4,0.2L58.9,255.7L58.9,255.7z M61.1,238.1
	c-1.6,10.7-1.7,15.3-1.7,16.6l81.8-1.6l-10.7-46.4l-62.8,6.7C64.7,221.4,62.4,229.7,61.1,238.1L61.1,238.1z"/>
<path class="st2" d="M59.7,232.9l77.8-8.8c-7.2-46.2-10.9-21.8-2.2-65l9.2-2.5c-4.3-22.3-14.8-32.1-14.8-32.1
	c-10.3-18.5-35.3-7.7-35.3-7.7s-28.7,2.3-36.1,27.1c-4.9,16.4,3.5,39.3,4.6,59.3C63.2,208.9,61.2,208.7,59.7,232.9z"/>
<path class="st0" d="M115.8,128.7c-2.9-0.4-5.7-0.9-8.7-0.1c-4.4,1.2-8.3,3.8-12.9,4.9c-4.9,1.1-10.2,1.2-15.2,1.4
	c-1.5,0.1,0.1,1.9-1.1,1.2c-4.4-2.6-4.8-8.7-5.2-13.2c-1.1-10.4-0.8-20.9,1-31.3c1.7-9,3.4-17.5,12.2-22.1
	c6.4-3.3,15.3-5.3,22.3-2.9s12.8,8.8,15.2,15.9c2.7,7.8,3.6,15.7,8.1,22.8c2,3.2,4.5,6.2,5,9.9c0.6,4.4-2.1,8.9-5.9,11.3
	c-3.8,2.4-8.5,3-13,2.4C117,128.9,116.4,128.8,115.8,128.7z"/>
<path class="st1" d="M78.3,136.7c-0.2,0-0.5-0.1-0.7-0.3c-4.5-2.7-5-8.4-5.4-13v-0.6c-1.1-11.8-0.7-22.1,1-31.4
	c1.6-8.7,3.3-17.7,12.4-22.5c5.7-3,15.1-5.6,22.7-2.9c7,2.5,12.9,8.7,15.5,16.2c0.9,2.5,1.6,5.1,2.2,7.6c1.4,5.3,2.8,10.4,5.8,15.1
	c0.4,0.6,0.7,1.2,1.1,1.7c1.7,2.6,3.5,5.3,3.9,8.4c0.6,4.4-1.9,9.2-6.1,11.8c-4.5,2.9-9.7,2.9-13.3,2.5l-1.8-0.3l-0.4-0.1
	c-2.7-0.4-5.3-0.8-8-0.1c-2.1,0.6-4.1,1.4-6,2.3c-2.2,1.1-4.6,1.9-7,2.6c-4.3,0.8-8.6,1.3-12.9,1.3l-2.4,0.1c-0.1,0-0.1,0-0.2,0
	c0,0.1,0,0.2,0,0.4c0.1,0.3,0,0.6-0.2,0.9C78.6,136.6,78.5,136.7,78.3,136.7z M101.3,66c-5.3,0.1-10.5,1.5-15.2,3.9
	c-8.7,4.6-10.3,13.3-11.9,21.8c-1.7,9.2-2,19.4-1,31.1l0.1,0.6c0.4,4.3,0.8,9.6,4.6,12c0-0.2,0.1-0.5,0.2-0.7
	c0.2-0.3,0.6-0.4,0.9-0.4l2.4-0.1c4.3,0,8.5-0.4,12.7-1.2c2.3-0.6,4.6-1.5,6.8-2.5c2-0.9,4-1.7,6.1-2.3c2.9-0.8,5.6-0.4,8.4,0
	l0.4,0.1l0,0c0.6,0.1,1.2,0.2,1.8,0.2c3.4,0.4,8.4,0.4,12.6-2.3c3.9-2.4,6.1-6.8,5.6-10.8c-0.4-2.9-2.1-5.5-3.7-8
	c-0.4-0.6-0.8-1.2-1.1-1.7c-3.1-4.9-4.5-10.2-5.9-15.4c-0.7-2.5-1.4-5-2.2-7.6c-2.5-7.2-8.2-13.2-14.9-15.6
	C105.8,66.3,103.6,66,101.3,66z"/>
<path class="st0" d="M119.2,87.2c0,0,5.2,12,3.6,21.4c-0.7,5.4-4.6,9.8-9.8,11.3l1,16.5c0,0,0.6,8.4-9.8,7.8
	c-6.1-0.4-11.6-3.9-14.5-9.3l-3.1-30.2c0,0,11.3-7.5,9.6-18.3C96.2,86.3,110.6,92.1,119.2,87.2z"/>
<path class="st1" d="M105.4,144.6h-1.2c-6.3-0.4-11.9-4.1-14.9-9.6c0-0.1,0-0.1,0-0.2l-3.1-30.2c0-0.2,0.1-0.4,0.2-0.5
	s11-7.4,9.3-17.8c0-0.3,0.2-0.5,0.4-0.6c0.1,0,0.2,0,0.2,0c0.1,0,14.2,5.7,22.5,0.9c0.1-0.1,0.3-0.1,0.4,0s0.2,0.2,0.3,0.3
	c0.2,0.5,5.2,12.2,3.7,21.7c-0.8,5.4-4.6,9.9-9.8,11.6l1,16.1c0.1,2.2-0.7,4.3-2.2,5.9C110.8,143.8,108.4,144.6,105.4,144.6z
	 M90.3,134.6c2.8,5.2,8.1,8.6,14.1,9c3.3,0.2,5.8-0.5,7.3-2.1c1.3-1.4,2-3.3,1.9-5.1l-1-16.5c0-0.2,0.2-0.5,0.4-0.5
	c5-1.4,8.8-5.7,9.4-10.9c1.3-8.1-2.4-18.3-3.4-20.6c-7.7,4-19,0.3-22.1-0.8c1,9.6-8,16.6-9.6,17.8L90.3,134.6z"/>
<path class="st1" d="M113.6,109.5c-0.8,0-1.7-0.1-2.5-0.2c-0.3-0.1-0.4-0.3-0.4-0.6l0,0c0-0.3,0.3-0.4,0.6-0.4l0,0
	c0,0,3.3,0.6,4.9-0.3c0.2-1.3-2.9-5.6-5.2-8.3c-0.2-0.2-0.2-0.5,0-0.7s0.5-0.2,0.7,0.1l0,0c1,1.1,5.8,6.9,5.5,9
	c0,0.3-0.2,0.6-0.5,0.8C115.8,109.3,114.7,109.5,113.6,109.5z"/>
<path class="st1" d="M110,114.9c-0.6,0-1.2-0.1-1.8-0.2c-2.8-0.5-5.4-2-7.2-4.2c-0.1-0.2,0-0.5,0.2-0.7c0.2-0.1,0.5,0,0.7,0.2
	c1.7,2,4,3.3,6.6,3.7c3.4,0.6,6.7-0.7,10-3.7c0.2-0.2,0.5-0.2,0.7,0s0.2,0.5,0,0.7c0,0,0,0-0.1,0C116.1,113.5,113.1,114.9,110,114.9
	z"/>
<path class="st1" d="M113,119.9c0,0-8.7,1.7-13.9,0.7c0,0,6.3,12.6,14.7,12L113,119.9z"/>
<path class="st1" d="M113.3,133.1c-8.3,0-14.3-11.8-14.6-12.3c-0.1-0.2-0.1-0.4,0.1-0.5c0.1-0.2,0.3-0.2,0.5-0.2
	c5,0.9,13.6-0.7,13.7-0.7s0.3,0,0.4,0.1s0.2,0.2,0.2,0.4l0.8,12.7c0,0.3-0.2,0.5-0.5,0.5l0,0H113.3z M100.1,121.2
	c1.6,2.7,6.8,10.9,13.2,10.9l0,0l-0.8-11.7C110.7,120.8,104.5,121.7,100.1,121.2z"/>
<polygon class="st1" points="163.5,120.4 185.1,119.4 174.3,165.3 151,167.6 "/>
<path class="st1" d="M151,168.1c-0.1,0-0.3-0.1-0.4-0.2c-0.1-0.1-0.1-0.3-0.1-0.5l12.5-47.2c0.1-0.2,0.2-0.4,0.5-0.4l21.7-1.1
	c0.2,0,0.3,0.1,0.4,0.2c0.1,0.1,0.1,0.3,0.1,0.4l-10.9,45.9c-0.1,0.2-0.2,0.4-0.4,0.4L151,168.1z M163.9,120.9L151.7,167l22.2-2.2
	l10.6-45L163.9,120.9z"/>
<path class="st1" d="M135.3,159.7c-0.3,0-0.5-0.2-0.5-0.5c-0.4-6.6-1.9-13.1-4.3-19.3c-0.1-0.3,0-0.5,0.3-0.7c0.2-0.1,0.5,0,0.7,0.2
	l0,0c2.5,6.3,4,12.9,4.4,19.6C135.8,159.4,135.6,159.7,135.3,159.7L135.3,159.7z"/>
<path class="st1" d="M101.3,98.9c0,0-0.1,0-0.2,0c-0.3-0.1-0.4-0.4-0.3-0.6c0.4-1.3,1.3-2.4,2.5-3c1.2-0.5,2.6-0.4,3.7,0.3
	c0.2,0.1,0.3,0.4,0.2,0.7c-0.1,0.2-0.4,0.3-0.6,0.2c-0.9-0.5-1.9-0.6-2.9-0.3c-0.9,0.5-1.6,1.3-1.9,2.3
	C101.7,98.7,101.5,98.9,101.3,98.9z"/>
<path class="st1" d="M115.2,95.9L115.2,95.9c-0.4-0.1-0.5-0.3-0.5-0.6c0.2-0.8,0.7-1.5,1.5-1.9c0.9-0.3,2-0.1,3.2,0.8
	c0.2,0.2,0.2,0.5,0.1,0.7c-0.2,0.2-0.4,0.2-0.6,0.1c-0.9-0.7-1.7-0.9-2.2-0.7c-0.4,0.3-0.8,0.7-0.8,1.2
	C115.6,95.8,115.4,95.9,115.2,95.9z"/>
<path class="st0" d="M72.2,107.4c0,0,1.2,3.7-2.7,14.3c-3.9,10.6-3.7,18.7,6,20.2s15.4,0.3,16.7-8S86,116.4,86,116.4"/>
<path class="st1" d="M81.6,142.9c-2.1,0-4.1-0.2-6.1-0.5c-3.6-0.5-6.1-2-7.5-4.3c-2.1-3.5-1.7-8.9,1.1-16.5
	c3.7-10.2,2.7-13.9,2.7-13.9c-0.1-0.3,0.1-0.6,0.3-0.7c0.3-0.1,0.6,0.1,0.7,0.3c0,0.2,1.2,4-2.7,14.6c-2.7,7.3-3,12.5-1.2,15.7
	c1.3,2.1,3.5,3.4,6.8,3.9c9.2,1.4,14.8,0.6,16.1-7.6c1.2-7.9-6-16.9-6.1-17c-0.2-0.2-0.1-0.5,0.1-0.7l0,0c0.2-0.2,0.5-0.1,0.7,0.1
	c0.3,0.4,7.6,9.4,6.3,17.8C91.6,140.7,87.6,142.9,81.6,142.9z"/>
<path class="st0" d="M341,44.8H200.2c-3.5,0-6.3,2.8-6.3,6.2v42.9l-16,19.6l16-5.7v120.6c0,3.5,2.8,6.3,6.3,6.3H341
	c3.5,0,6.3-2.8,6.3-6.3l0,0V51C347.3,47.5,344.5,44.8,341,44.8z"/>
<path class="st1" d="M341,235.2H200.2c-3.7,0-6.8-3-6.8-6.8V108.5l-15.3,5.5c-0.2,0.1-0.4,0-0.6-0.2c-0.1-0.2-0.1-0.4,0-0.6
	l15.9-19.5V51c0-3.7,3-6.8,6.8-6.8H341c3.7,0,6.8,3,6.8,6.8v177.4C347.8,232.1,344.8,235.2,341,235.2z M193.9,107.3
	c0.1,0,0.2,0,0.3,0.1s0.2,0.2,0.2,0.4v120.6c0,3.2,2.6,5.8,5.8,5.8H341c3.2,0,5.8-2.6,5.8-5.8V51c0-3.2-2.6-5.8-5.8-5.8H200.2
	c-3.2,0-5.8,2.6-5.8,5.8v42.9c0,0.1,0,0.2-0.1,0.3l-14.9,18.2l14.3-5.1C193.8,107.3,193.9,107.3,193.9,107.3z"/>
<path class="st0" d="M176.7,167.6c8-11.4,8-11.4,7.6-15.3c-0.4-3-1.9-5.6-3.4-8.1c-2-3.2-6.4-8-8-1.6c-0.8,3.1-2.1,6.9-1.2,10.1
	c0.8,2.9,3,5.4,4.2,8.1"/>
<path class="st1" d="M176.7,168.1c-0.1,0-0.2,0-0.3-0.1c-0.2-0.2-0.3-0.5-0.1-0.7c7.9-11.2,7.9-11.2,7.5-14.9
	c-0.3-3-1.9-5.6-3.4-7.9s-3.7-4.7-5.2-4.5c-1,0.2-1.6,1.6-1.9,2.8l-0.3,1.1c-0.8,2.8-1.6,6.1-0.9,8.8c0.5,1.7,1.3,3.3,2.3,4.7
	c0.7,1.1,1.3,2.2,1.8,3.3c0.1,0.3,0,0.5-0.3,0.7c-0.3,0.1-0.5,0-0.7-0.3c-0.5-1.1-1.1-2.2-1.8-3.2c-1.1-1.5-1.9-3.2-2.4-5
	c-0.8-2.9,0.1-6.3,0.9-9.3l0.3-1.1c0.6-2.1,1.5-3.3,2.7-3.5c2.6-0.4,5.4,3.7,6.2,4.9c1.5,2.4,3.1,5.1,3.5,8.3
	c0.5,4.1,0.5,4.1-7.6,15.6C177,168,176.8,168.1,176.7,168.1z"/>
<path class="st0" d="M78.4,183c0,0,35.9,33.2,46.2,29.4s22.2-19.6,29.3-30.6s16.2-26.3,17.5-33.1s-0.8-11.9-3.3-10.6
	S156,148.7,156,148.7s3.2-9.1,1.7-9.1s-5.9,4-7.4,17l-30.5,31l-25-24.4"/>
<path class="st1" d="M122.8,213.2c-12.3,0-43.3-28.5-44.7-29.8c-0.2-0.2-0.2-0.5,0-0.7l0,0c0.2-0.2,0.5-0.2,0.7,0
	c0.1,0.1,9.1,8.4,19.2,16.1c13.3,10.1,22.4,14.7,26.4,13.2c11.6-4.3,25.1-24.4,29-30.4c7.2-11.3,16.1-26.2,17.4-32.9
	c1-4.9,0.1-8.9-1.3-9.9c-0.3-0.3-0.8-0.4-1.3-0.1c-2.4,1.2-11.8,10.4-11.9,10.5c-0.2,0.2-0.4,0.2-0.6,0.1c-0.2-0.1-0.3-0.4-0.2-0.6
	c1.2-3.5,2.3-7.6,2.1-8.5c-1,0.2-5.3,3.4-6.8,16.5c0,0.1-0.1,0.2-0.1,0.3l-30.5,31c-0.2,0.2-0.5,0.2-0.7,0l0,0l-25-24.4
	c-0.2-0.2-0.2-0.5,0-0.7s0.5-0.2,0.7,0l0,0l24.7,24l30-30.5c1.5-12.9,6-17.2,7.9-17.2l0,0c0.3,0,0.5,0.1,0.6,0.4
	c0.7,1-0.4,4.7-1.2,7.5c2.8-2.7,8.7-8.3,10.7-9.3c0.7-0.4,1.7-0.3,2.3,0.2c1.9,1.5,2.7,6.1,1.7,10.9c-1.3,6.8-10.3,21.8-17.6,33.2
	c-5,7.9-17.9,26.6-29.5,30.8C124.2,213.1,123.5,213.2,122.8,213.2z"/>
<path d="M235.8,152.6l-3.5-5.2h2l2.3,3.9l2.3-3.9h1.9l-3.5,5.2v4h-1.6L235.8,152.6z"/>
<path d="M240,153.5c0-0.5,0.1-0.9,0.3-1.4c0.3-0.8,1-1.4,1.8-1.7c0.9-0.3,1.8-0.3,2.7,0c0.4,0.1,0.8,0.4,1.1,0.7s0.6,0.6,0.7,1
	c0.2,0.4,0.3,0.9,0.3,1.4s-0.1,0.9-0.3,1.4c-0.2,0.4-0.4,0.8-0.7,1.1s-0.7,0.5-1.1,0.7c-0.9,0.3-1.8,0.3-2.7,0
	c-0.4-0.2-0.8-0.4-1.1-0.7s-0.6-0.7-0.7-1.1C240.1,154.4,240,154,240,153.5z M241.6,153.5c0,0.2,0,0.5,0.1,0.7s0.2,0.5,0.3,0.6
	c0.2,0.2,0.3,0.4,0.6,0.5c0.7,0.4,1.7,0.2,2.2-0.5c0.2-0.2,0.3-0.4,0.3-0.6c0.1-0.2,0.1-0.5,0.1-0.7s0-0.5-0.1-0.7s-0.2-0.4-0.3-0.6
	c-0.1-0.2-0.3-0.4-0.6-0.5c-0.5-0.2-1.1-0.2-1.6,0c-0.2,0.1-0.4,0.3-0.6,0.5c-0.1,0.2-0.3,0.4-0.3,0.6
	C241.6,153,241.6,153.3,241.6,153.5z"/>
<path d="M254,156.6h-1.5v-1l0,0c-0.2,0.3-0.4,0.6-0.7,0.8c-0.4,0.2-0.8,0.4-1.2,0.4c-0.3,0-0.7-0.1-1-0.2c-0.3-0.1-0.5-0.3-0.7-0.6
	c-0.2-0.2-0.3-0.5-0.4-0.8c-0.1-0.3-0.1-0.6-0.1-0.9v-3.9h1.6v3.5c0,0.2,0,0.4,0,0.6c0,0.2,0.1,0.4,0.2,0.5c0.1,0.2,0.2,0.3,0.4,0.4
	c0.2,0.1,0.4,0.2,0.6,0.2c0.2,0,0.4,0,0.6-0.1c0.2-0.1,0.3-0.2,0.5-0.4c0.1-0.2,0.2-0.3,0.3-0.5s0.1-0.4,0.1-0.6v-3.4h1.5v6H254z"/>
<path d="M255.9,150.4h1.5v1l0,0c0.2-0.4,0.4-0.7,0.7-0.9c0.3-0.2,0.7-0.3,1.1-0.3h0.2c0.1,0,0.1,0,0.2,0v1.4l-0.3-0.1h-0.2
	c-0.3,0-0.6,0.1-0.9,0.2c-0.2,0.1-0.4,0.3-0.5,0.5s-0.2,0.4-0.3,0.6c0,0.1-0.1,0.3-0.1,0.4v3.4h-1.5L255.9,150.4L255.9,150.4z"/>
<path d="M263.5,152c0-0.7,0.1-1.4,0.4-2c0.2-0.6,0.6-1.1,1-1.5s1-0.8,1.6-1s1.3-0.4,2-0.3c0.7,0,1.4,0.1,2,0.3s1.1,0.6,1.6,1
	c0.4,0.4,0.8,0.9,1,1.5c0.5,1.3,0.5,2.7,0,4c-0.2,0.6-0.6,1.1-1,1.5c-0.5,0.4-1,0.8-1.6,1s-1.3,0.4-2,0.4s-1.4-0.1-2-0.4
	c-0.6-0.2-1.1-0.6-1.6-1c-0.4-0.4-0.8-1-1-1.5C263.7,153.4,263.5,152.7,263.5,152z M265.3,152c0,0.5,0.1,0.9,0.2,1.4
	c0.3,0.8,0.9,1.5,1.6,1.8c0.8,0.3,1.8,0.3,2.6,0c0.4-0.2,0.7-0.4,1-0.7s0.5-0.7,0.6-1.1c0.2-0.4,0.2-0.9,0.2-1.4s-0.1-0.9-0.2-1.3
	c-0.1-0.4-0.4-0.8-0.6-1.1c-0.3-0.3-0.6-0.5-1-0.7s-0.9-0.3-1.3-0.3s-0.9,0.1-1.3,0.3s-0.7,0.4-1,0.7s-0.5,0.7-0.6,1.1
	C265.4,151.1,265.3,151.5,265.3,152z"/>
<path d="M275,150.4h1.5v1l0,0c0.2-0.4,0.4-0.7,0.7-0.9c0.3-0.2,0.7-0.3,1.1-0.3h0.2c0.1,0,0.1,0,0.2,0v1.4l-0.3-0.1h-0.2
	c-0.3,0-0.6,0.1-0.9,0.2c-0.2,0.1-0.4,0.3-0.5,0.5s-0.2,0.4-0.3,0.6c0,0.1-0.1,0.3-0.1,0.4v3.4H275V150.4z"/>
<path d="M285.8,156.6h-1.5v-0.9l0,0c-0.2,0.4-0.5,0.7-0.9,0.8c-0.4,0.2-0.8,0.3-1.2,0.3c-0.9,0-1.7-0.3-2.3-1
	c-0.3-0.3-0.5-0.7-0.6-1.1c-0.1-0.4-0.2-0.9-0.2-1.3c0-0.4,0.1-0.9,0.2-1.3c0.1-0.4,0.3-0.7,0.6-1c0.3-0.3,0.6-0.5,1-0.7
	s0.8-0.3,1.2-0.3c0.3,0,0.5,0,0.8,0.1c0.2,0.1,0.4,0.1,0.6,0.2c0.2,0.1,0.3,0.2,0.4,0.3s0.2,0.2,0.3,0.3l0,0v-4.4h1.6V156.6z
	 M280.7,153.5c0,0.2,0,0.5,0.1,0.7s0.2,0.5,0.3,0.6c0.2,0.2,0.3,0.4,0.6,0.5c0.2,0.1,0.5,0.2,0.8,0.2s0.5-0.1,0.8-0.2
	c0.2-0.1,0.4-0.3,0.6-0.5s0.3-0.4,0.4-0.6c0.1-0.2,0.1-0.5,0.1-0.7s0-0.5-0.1-0.7s-0.2-0.5-0.4-0.6c-0.2-0.2-0.4-0.4-0.6-0.5
	s-0.5-0.2-0.8-0.2s-0.5,0.1-0.8,0.2c-0.2,0.1-0.4,0.3-0.6,0.5c-0.1,0.2-0.3,0.4-0.3,0.6C280.7,153,280.7,153.3,280.7,153.5z"/>
<path d="M293.7,153.6v0.2c0,0.1,0,0.1,0,0.2h-4.8c0,0.2,0.1,0.4,0.2,0.6c0.1,0.2,0.2,0.4,0.4,0.5c0.2,0.1,0.4,0.2,0.6,0.3
	s0.4,0.1,0.6,0.1c0.3,0,0.7-0.1,1-0.2c0.3-0.1,0.5-0.3,0.7-0.6l1,0.8c-0.6,0.8-1.6,1.3-2.7,1.3c-0.5,0-0.9-0.1-1.3-0.2
	c-0.4-0.1-0.8-0.4-1.1-0.6c-0.3-0.3-0.5-0.6-0.7-1c-0.3-0.9-0.3-1.9,0-2.8c0.2-0.4,0.4-0.8,0.7-1.1c0.3-0.3,0.7-0.5,1-0.7
	c0.8-0.3,1.7-0.3,2.5,0c0.4,0.1,0.7,0.4,1,0.6c0.3,0.3,0.5,0.7,0.6,1.1C293.7,152.6,293.7,153.1,293.7,153.6z M292.1,152.9
	c0-0.2,0-0.4-0.1-0.6c0-0.2-0.1-0.3-0.3-0.5c-0.1-0.1-0.3-0.3-0.5-0.3c-0.2-0.1-0.4-0.1-0.6-0.1c-0.4,0-0.9,0.1-1.2,0.4
	c-0.3,0.3-0.5,0.7-0.5,1.1L292.1,152.9z"/>
<path d="M295.2,150.4h1.5v1l0,0c0.2-0.4,0.4-0.7,0.7-0.9c0.3-0.2,0.7-0.3,1.1-0.3h0.2c0.1,0,0.1,0,0.2,0v1.4l-0.3-0.1h-0.2
	c-0.3,0-0.6,0.1-0.9,0.2c-0.2,0.1-0.4,0.3-0.5,0.5s-0.2,0.4-0.3,0.6c0,0.1-0.1,0.3-0.1,0.4v3.4H295L295.2,150.4z"/>
<path d="M303,148.3c0-0.2,0.1-0.5,0.3-0.7c0.2-0.2,0.4-0.3,0.7-0.3c0.3,0,0.5,0.1,0.7,0.3s0.3,0.4,0.3,0.7s-0.1,0.5-0.3,0.7
	c-0.2,0.2-0.5,0.3-0.7,0.3c-0.3,0-0.5-0.1-0.7-0.3C303.1,148.8,303,148.5,303,148.3z M303.2,150.4h1.6v6.3h-1.6V150.4z"/>
<path d="M310.1,152.1c-0.2-0.2-0.3-0.4-0.6-0.5c-0.2-0.1-0.5-0.2-0.8-0.2c-0.2,0-0.5,0-0.7,0.1s-0.3,0.3-0.3,0.5s0.1,0.4,0.4,0.5
	s0.7,0.2,1,0.3c0.2,0.1,0.5,0.1,0.7,0.2c0.2,0.1,0.5,0.2,0.6,0.4c0.2,0.1,0.4,0.3,0.5,0.5s0.2,0.5,0.2,0.8s-0.1,0.7-0.2,1
	s-0.3,0.5-0.6,0.6c-0.3,0.2-0.5,0.3-0.8,0.4c-0.8,0.2-1.6,0.1-2.4-0.1c-0.4-0.2-0.8-0.4-1.1-0.8l1-1c0.2,0.2,0.4,0.4,0.7,0.6
	c0.3,0.2,0.6,0.2,0.9,0.2c0.1,0,0.2,0,0.3,0c0.1,0,0.2-0.1,0.3-0.1c0.1-0.1,0.2-0.1,0.2-0.2c0.1-0.1,0.1-0.2,0.1-0.4
	s-0.1-0.5-0.4-0.6s-0.7-0.3-1.1-0.3c-0.2-0.1-0.5-0.1-0.7-0.2c-0.2-0.1-0.4-0.2-0.6-0.3s-0.3-0.3-0.4-0.5s-0.2-0.5-0.1-0.7
	c0-0.3,0.1-0.6,0.2-0.9c0.1-0.2,0.3-0.5,0.6-0.6c0.2-0.2,0.5-0.3,0.8-0.4c0.3-0.1,0.6-0.1,0.9-0.1c0.5,0,0.9,0.1,1.3,0.2
	c0.4,0.1,0.7,0.4,1,0.7L310.1,152.1z"/>
<path d="M247.6,165.2c-0.3-0.3-0.6-0.6-1-0.7c-0.4-0.1-0.8-0.2-1.1-0.2c-0.4,0-0.9,0.1-1.3,0.3c-0.4,0.2-0.7,0.4-1,0.7
	s-0.5,0.7-0.6,1.1c-0.2,0.4-0.2,0.9-0.2,1.3c0,0.5,0.1,0.9,0.2,1.4c0.1,0.4,0.4,0.8,0.6,1.1c0.3,0.3,0.6,0.5,1,0.7s0.8,0.3,1.3,0.3
	s0.9-0.1,1.3-0.3c0.4-0.2,0.7-0.5,0.9-0.8l1.3,0.9c-0.4,0.5-0.9,0.9-1.5,1.2c-0.7,0.3-1.4,0.4-2.1,0.4c-0.7,0-1.4-0.1-2-0.4
	c-0.6-0.2-1.1-0.6-1.6-1c-0.4-0.4-0.8-1-1-1.5c-0.3-0.6-0.4-1.3-0.4-2s0.1-1.4,0.4-2c0.2-0.6,0.6-1.1,1.1-1.5s1-0.8,1.6-1
	s1.3-0.4,2-0.3c0.3,0,0.6,0,0.9,0.1c0.3,0.1,0.6,0.1,0.9,0.3c0.3,0.1,0.6,0.3,0.8,0.4c0.3,0.2,0.5,0.4,0.7,0.6L247.6,165.2z"/>
<path d="M249.4,169.1c0-0.9,0.4-1.8,1-2.4c0.3-0.3,0.7-0.5,1.1-0.7c0.9-0.3,1.8-0.3,2.6,0c0.4,0.1,0.8,0.4,1.1,0.7
	c0.6,0.6,1,1.5,1,2.4c0,0.5-0.1,0.9-0.3,1.4c-0.3,0.8-1,1.4-1.8,1.7c-0.9,0.3-1.8,0.3-2.6,0C250.2,171.7,249.4,170.5,249.4,169.1
	L249.4,169.1z M251,169.1c0,0.2,0,0.5,0.1,0.7s0.2,0.5,0.3,0.6c0.2,0.2,0.3,0.4,0.6,0.5c0.5,0.2,1.1,0.2,1.6,0
	c0.2-0.1,0.4-0.3,0.6-0.5c0.2-0.2,0.3-0.4,0.3-0.6c0.1-0.2,0.1-0.5,0.1-0.7s0-0.5-0.1-0.7s-0.2-0.5-0.3-0.6
	c-0.1-0.2-0.3-0.4-0.6-0.5c-0.5-0.2-1.1-0.2-1.6,0c-0.2,0.1-0.4,0.3-0.6,0.5c-0.2,0.2-0.3,0.4-0.3,0.6
	C251,168.6,251,168.9,251,169.1L251,169.1z"/>
<path d="M257.7,166h1.5v1l0,0c0.2-0.3,0.4-0.6,0.7-0.8c0.4-0.2,0.8-0.4,1.2-0.4c0.4,0,0.7,0.1,1,0.2c0.3,0.1,0.5,0.3,0.7,0.6
	c0.2,0.2,0.3,0.5,0.4,0.8s0.1,0.6,0.1,0.9v3.9h-1.6v-3.5c0-0.2,0-0.4,0-0.6c0-0.2-0.1-0.4-0.2-0.5c-0.1-0.2-0.2-0.3-0.4-0.4
	c-0.2-0.1-0.4-0.2-0.6-0.2s-0.4,0.1-0.6,0.1c-0.2,0.1-0.3,0.2-0.5,0.4c-0.1,0.2-0.2,0.3-0.3,0.5c-0.1,0.2-0.1,0.4-0.1,0.6v3.4h-1.6
	L257.7,166z"/>
<path d="M265.5,167.3h-1.2V166h1.2v-0.9c0-0.4,0-0.7,0.1-1.1c0.1-0.3,0.2-0.6,0.4-0.9c0.2-0.3,0.5-0.5,0.8-0.6
	c0.4-0.2,0.8-0.2,1.2-0.2h0.4c0.1,0,0.2,0,0.4,0.1l-0.1,1.3c-0.1,0-0.2,0-0.3-0.1c-0.1,0-0.2,0-0.3,0c-0.2,0-0.4,0-0.5,0.1
	s-0.2,0.2-0.3,0.3c-0.1,0.1-0.1,0.3-0.1,0.5s0,0.3,0,0.5v1h1.5v1.3h-1.5v5h-1.6L265.5,167.3z M269.5,163.9c0-0.2,0.1-0.5,0.3-0.7
	c0.2-0.2,0.4-0.3,0.7-0.3c0.3,0,0.5,0.1,0.7,0.3c0.4,0.3,0.4,0.9,0,1.3l0,0c-0.2,0.2-0.5,0.3-0.7,0.3c-0.3,0-0.5-0.1-0.7-0.3
	C269.6,164.4,269.5,164.2,269.5,163.9L269.5,163.9z M269.7,166h1.6v6.3h-1.6V166z"/>
<path d="M273,166h1.5v1.1l0,0c0.2-0.4,0.4-0.7,0.7-0.9c0.3-0.2,0.7-0.3,1.1-0.3h0.2c0.1,0,0.1,0,0.2,0v1.4h-0.3h-0.2
	c-0.3,0-0.6,0.1-0.9,0.2c-0.2,0.1-0.4,0.3-0.5,0.5s-0.2,0.4-0.3,0.6c0,0.1-0.1,0.3-0.1,0.5v3.4H273V166z"/>
<path d="M285.2,165.9c0.4,0,0.7,0.1,1,0.2c0.3,0.1,0.5,0.3,0.7,0.6c0.2,0.2,0.3,0.5,0.4,0.8s0.1,0.6,0.1,0.9v3.9H286v-3.5
	c0-0.2,0-0.4,0-0.6c0-0.2-0.1-0.4-0.2-0.5c-0.2-0.4-0.6-0.6-1-0.6c-0.2,0-0.4,0.1-0.6,0.2c-0.2,0.1-0.3,0.2-0.4,0.4
	s-0.2,0.4-0.2,0.6c-0.1,0.2-0.1,0.4-0.1,0.6v3.4h-1.6v-3.8c0-0.4-0.1-0.7-0.3-1c-0.2-0.3-0.5-0.4-0.9-0.4c-0.2,0-0.4,0.1-0.6,0.1
	c-0.2,0.1-0.3,0.2-0.4,0.4s-0.2,0.3-0.3,0.5c-0.1,0.2-0.1,0.4-0.1,0.6v3.4h-1.6V166h1.5v1l0,0c0.1-0.2,0.2-0.3,0.3-0.4
	c0.1-0.1,0.3-0.3,0.4-0.4c0.2-0.1,0.4-0.2,0.6-0.3c0.6-0.2,1.3-0.1,1.9,0.2c0.3,0.2,0.6,0.5,0.7,0.9c0.2-0.4,0.5-0.7,0.8-0.9
	C284.4,165.9,284.8,165.8,285.2,165.9z"/>
<path d="M295.3,169.2v0.2c0,0.1,0,0.1,0,0.2h-4.8c0,0.2,0.1,0.4,0.2,0.6c0.1,0.2,0.2,0.3,0.4,0.5c0.2,0.1,0.4,0.2,0.6,0.3
	s0.4,0.1,0.6,0.1c0.3,0,0.7-0.1,1-0.2c0.3-0.1,0.5-0.3,0.7-0.6l1,0.8c-0.6,0.8-1.6,1.3-2.7,1.3c-0.5,0-0.9-0.1-1.4-0.2
	c-0.4-0.1-0.8-0.4-1.1-0.6c-0.3-0.3-0.5-0.6-0.7-1c-0.3-0.9-0.3-1.9,0-2.8c0.2-0.4,0.4-0.8,0.7-1.1c0.3-0.3,0.6-0.5,1-0.7
	s0.9-0.2,1.3-0.2s0.8,0.1,1.2,0.2c0.4,0.1,0.7,0.3,1,0.6s0.5,0.6,0.6,1C295.3,168.2,295.3,168.7,295.3,169.2z M293.8,168.5
	c0-0.2,0-0.4-0.1-0.6c-0.1-0.2-0.1-0.3-0.3-0.5c-0.1-0.1-0.3-0.3-0.5-0.3c-0.2-0.1-0.4-0.1-0.7-0.1c-0.4,0-0.9,0.1-1.2,0.4
	c-0.3,0.3-0.5,0.7-0.5,1.1L293.8,168.5z"/>
<path d="M303.2,172.3h-1.5v-0.9l0,0c-0.2,0.4-0.5,0.7-0.9,0.8c-0.4,0.2-0.8,0.3-1.2,0.3c-0.4,0-0.9-0.1-1.3-0.3s-0.7-0.4-1-0.7
	s-0.5-0.7-0.6-1.1c-0.2-0.4-0.2-0.9-0.2-1.3c0-0.4,0.1-0.9,0.2-1.3c0.1-0.4,0.4-0.7,0.6-1c0.3-0.3,0.6-0.5,1-0.7s0.8-0.3,1.2-0.3
	c0.3,0,0.5,0,0.8,0.1c0.2,0.1,0.4,0.1,0.6,0.2c0.2,0.1,0.3,0.2,0.4,0.3s0.2,0.2,0.3,0.3l0,0v-4.4h1.6V172.3z M298.1,169.1
	c0,0.2,0,0.5,0.1,0.7s0.2,0.5,0.3,0.6c0.2,0.2,0.4,0.4,0.6,0.5s0.5,0.2,0.8,0.2s0.5-0.1,0.8-0.2c0.2-0.1,0.4-0.3,0.6-0.5
	c0.3-0.4,0.5-0.9,0.5-1.4c0-0.2,0-0.5-0.1-0.7s-0.2-0.5-0.4-0.6c-0.2-0.2-0.4-0.4-0.6-0.5s-0.5-0.2-0.8-0.2c-0.5,0-1,0.2-1.4,0.6
	c-0.1,0.2-0.3,0.4-0.3,0.6C298.1,168.6,298.1,168.9,298.1,169.1z"/>
<path class="st3" d="M270.6,128.9c-14.3,0-25.9-11.6-25.9-25.9s11.6-25.9,25.9-25.9s25.9,11.6,25.9,25.9S284.9,128.9,270.6,128.9z
	 M270.6,78.1c-13.8,0-24.9,11.2-24.9,24.9s11.2,24.9,24.9,24.9s24.9-11.2,24.9-24.9l0,0C295.5,89.3,284.4,78.1,270.6,78.1z"/>
<path class="st2" d="M288.8,96.5c-0.2,0.3-0.4,0.6-0.6,0.8l-21.3,21.3c-0.4,0.6-1.1,0.7-1.7,0.3c-0.1-0.1-0.2-0.2-0.3-0.3
	c-4-4.1-8-8.2-12-12.4c-0.5-0.4-0.6-1.1-0.2-1.6c0.1-0.1,0.2-0.2,0.3-0.3l3-2.7c0.4-0.5,1.1-0.6,1.6-0.2c0.1,0.1,0.1,0.1,0.2,0.2
	l7.1,7.2c0.7,0.8,1.3,0.8,2,0l16.6-16.5c0.4-0.6,1.1-0.7,1.6-0.4c0.1,0.1,0.3,0.2,0.4,0.4c0.9,0.9,1.9,1.9,2.8,2.8
	c0.2,0.2,0.4,0.5,0.6,0.8L288.8,96.5z"/>
<path class="st1" d="M103.4,105.6c-3.9,0-7-3.1-7-7s3.1-7,7-7c3.4,0,6.3,2.4,6.9,5.6l0,0c0.7,3.8-1.7,7.4-5.4,8.2
	C104.3,105.6,103.9,105.6,103.4,105.6z M103.4,92.7c-0.4,0-0.8,0-1.2,0.1c-3.3,0.6-5.4,3.8-4.8,7c0.6,3.3,3.8,5.4,7,4.8
	c3.3-0.6,5.4-3.8,4.8-7v-0.1l0,0C108.6,94.7,106.2,92.8,103.4,92.7L103.4,92.7z"/>
<path class="st1" d="M118.1,102.6c-3.9,0-7-3.2-6.9-7.1c0-1.3,0.4-2.6,1.1-3.7c2.2-3.2,6.5-4.1,9.7-1.9c1.5,1,2.6,2.6,2.9,4.4l0,0
	c0.7,3.8-1.7,7.4-5.4,8.2C119.1,102.6,118.6,102.6,118.1,102.6z M118.1,89.7c-0.4,0-0.8,0-1.2,0.1c-3.3,0.6-5.4,3.8-4.8,7
	c0.6,3.3,3.8,5.4,7,4.8c3.3-0.6,5.4-3.8,4.8-7v-0.1l0,0C123.4,91.7,121,89.7,118.1,89.7L118.1,89.7z"/>
<path class="st1" d="M109.6,97.3c-0.1,0-0.2,0-0.3-0.1c-0.2-0.1-0.3-0.4-0.2-0.7l0,0c0.6-0.9,1.8-1.2,2.8-0.6l0,0
	c0.2,0.2,0.3,0.5,0.1,0.7c-0.1,0.2-0.4,0.3-0.6,0.2c-1-0.5-1.4,0.2-1.5,0.3C109.9,97.2,109.8,97.3,109.6,97.3z"/>
<line class="st4" x1="96.8" y1="98.7" x2="84.8" y2="100.2"/>
<path class="st1" d="M84.8,100.7c-0.3,0-0.5-0.2-0.5-0.5s0.2-0.5,0.5-0.5l12-1.5c0.3,0,0.5,0.2,0.5,0.4l0,0c0,0.3-0.2,0.5-0.4,0.6
	L84.8,100.7L84.8,100.7z"/>
<path class="st1" d="M85.7,104.5c0,0-4.1-13.8,1.4-23.3c4.6-7.8,16.5-13.2,25.3-13.5c-4.3-3.6-10.3-4.3-15.4-1.9
	c-9.1,4-14,8.5-15.8,16.7C78.6,94.4,85.7,104.5,85.7,104.5z"/>
<path class="st1" d="M85.7,105c-0.2,0-0.3-0.1-0.4-0.2s-7.2-10.5-4.6-22.4c1.7-8,6.3-12.8,16.1-17.1c5.3-2.5,11.5-1.7,16,2
	c0.1,0.1,0.2,0.4,0.1,0.5c-0.1,0.2-0.2,0.3-0.4,0.3c-8.5,0.3-20.4,5.5-25,13.3c-5.3,9.1-1.4,22.7-1.3,22.9c0.1,0.2,0,0.5-0.3,0.6
	C85.8,105,85.8,105,85.7,105z M103.4,64.9c-2.1,0-4.2,0.5-6.2,1.3c-9.5,4.2-13.9,8.8-15.5,16.4s0.9,14.8,2.8,18.7
	c-0.9-4.8-1.7-13.6,2.2-20.3c4.5-7.7,15.8-12.9,24.4-13.7C108.8,65.8,106.1,64.9,103.4,64.9L103.4,64.9z"/>
<path class="st0" d="M92.2,102.1c0,0-5.8-11.1-11.1-3.5s3.6,14.9,8.6,13.9"/>
<path class="st1" d="M88.8,113.1c-2.9,0-6.3-2-8.3-5c-2.1-3-2-7,0.2-9.8c1.4-2,3-3,4.7-2.8c4,0.3,7.1,6.2,7.3,6.4
	c0.1,0.2,0,0.6-0.2,0.7s-0.5,0-0.7-0.2c0-0.1-3-5.7-6.4-5.9c-1.3-0.1-2.6,0.7-3.8,2.4c-2,2.6-2,6.1-0.2,8.7c1.9,3,5.7,4.9,8.3,4.4
	c0.3,0,0.5,0.1,0.6,0.4c0,0.3-0.1,0.5-0.4,0.6C89.5,113,89.2,113.1,88.8,113.1z"/>
<path class="st1" d="M92.3,161.4c-0.1,0-0.3-0.1-0.4-0.2c-0.1-0.1-12.4-13.4-20.8-16.7c-0.3-0.1-0.4-0.3-0.4-0.6
	c0.1-0.3,0.3-0.4,0.6-0.4h0.1c8.7,3.4,20.7,16.4,21.2,16.9c0.2,0.2,0.2,0.5,0,0.7C92.6,161.4,92.5,161.4,92.3,161.4z"/>
<path class="st3" d="M241.1,88.4c-0.1,0-0.2,0-0.3-0.1l-11-7.6c-0.2-0.2-0.3-0.5-0.1-0.7s0.5-0.3,0.7-0.1l0,0l11,7.6
	c0.2,0.1,0.3,0.5,0.1,0.7l0,0C241.5,88.3,241.3,88.4,241.1,88.4z"/>
<path class="st3" d="M230.2,126.2c-0.2,0-0.3-0.1-0.4-0.2c-0.2-0.2-0.1-0.5,0.1-0.7l11-7.6c0.2-0.2,0.5-0.1,0.7,0.1l0,0
	c0.2,0.2,0.1,0.5-0.1,0.7l0,0l-11,7.6C230.4,126.2,230.3,126.2,230.2,126.2z"/>
<path class="st3" d="M240,103.5h-9.8c-0.3,0-0.5-0.2-0.5-0.5s0.2-0.5,0.5-0.5h9.8c0.3,0,0.5,0.2,0.5,0.5S240.3,103.5,240,103.5z"/>
<path class="st3" d="M301.1,88.4c-0.2,0-0.3-0.1-0.4-0.2c-0.2-0.2-0.1-0.5,0.1-0.7l0,0l11-7.6c0.2-0.2,0.5-0.1,0.7,0.1l0,0
	c0.2,0.2,0.1,0.5-0.1,0.7l0,0l-11,7.6C301.3,88.4,301.2,88.4,301.1,88.4z"/>
<path class="st3" d="M312.1,126.2c-0.1,0-0.2,0-0.3-0.1l-11-7.6c-0.2-0.1-0.3-0.5-0.1-0.7l0,0c0.2-0.2,0.5-0.3,0.7-0.1l0,0l11,7.6
	c0.2,0.2,0.3,0.5,0.1,0.7l0,0C312.4,126.1,312.3,126.2,312.1,126.2z"/>
<path class="st3" d="M312.1,103.5h-9.8c-0.3,0-0.5-0.2-0.5-0.5s0.2-0.5,0.5-0.5h9.8c0.3,0,0.5,0.2,0.5,0.5S312.4,103.5,312.1,103.5z
	"/>
</svg>
